# xmcd
#
# Track frame offsets:
#	150
#	9969
#	21132
#	34724
#	43044
#	57657
#	71989
#	88670
#	95920
#	107825
#	125678
#	136267
#	145673
#	166245
#	179555
#	189579
#	204091
#	216421
#	226423
#	237534
#	251358
#	260185
#	270616
#
# Disc length: 3814 seconds
#
# Revision: 0
# Processed by: cddbd v1.5.2PL0 Copyright (c) Steve Scherf et al.
# Submitted via: EasyCDDAExtractor 15.2.5.1
#
DISCID=5b0ee417
DTITLE=Various Artist - BRAZIL BOSSA BEAT! (ELENCO)
DYEAR=1900
DGENRE=
TTITLE0=EDU LOBO and THE TAMBA TRIO - RESOLUCAO
TTITLE1=BADEN POWELL - CONSOLACAO
TTITLE2=QUARTETO EM CY - O CANTO DE OSSANHA
TTITLE3=SERGIO RICARDO - A FABRICA
TTITLE4=EDU LOBO - ZANZIBAR
TTITLE5=VINICIUS DE MORAES and ODETTE LARA - BERIMBAU
TTITLE6=MPB-4 - BECO DO MOTA
TTITLE7=ROBERTO MENESCAL E SEU CONJUNTO - CINCO POR OITO
TTITLE8=NARA LEAO - MARIA MOITA
TTITLE9=SERGIO RICARDO - ENQUANTO A TRISTESSE NAO VEM
TTITLE10=EDU LOBO - UPA NEGUINHO
TTITLE11=NARA LEAO - NANA
TTITLE12=BADEN POWELL - CANDOMBLE
TTITLE13=EDU LOBO and THE TAMBA TRIO - REZA
TTITLE14=QUARTETO EM CY - AMORALINA
TTITLE15=LENNIE DALE and THE SAMBALANCO TRIO - SAMBAR DE MUDAR
TTITLE16=NARA LEAO - CONSOLOCAO
TTITLE17=MPB-4 - CRAVO E CANELA
TTITLE18=LUCIO ALVES - NEGRO
TTITLE19=BADEN POWELL - COISA No. 1
TTITLE20=ROBERTO MENESCAL E SEU CONJUNTO - ADRIANA
TTITLE21=SYLVIA TELLES - SAMBA DE UMA NOTA SO
TTITLE22=MPB-4 - SENTINELA
EXTD=
EXTT0=
EXTT1=
EXTT2=
EXTT3=
EXTT4=
EXTT5=
EXTT6=
EXTT7=
EXTT8=
EXTT9=
EXTT10=
EXTT11=
EXTT12=
EXTT13=
EXTT14=
EXTT15=
EXTT16=
EXTT17=
EXTT18=
EXTT19=
EXTT20=
EXTT21=
EXTT22=
PLAYORDER=
